<svg width="20" height="21" viewBox="0 0 20 21" fill="none" xmlns="http://www.w3.org/2000/svg">
<mask id="path-1-outside-1_1749_3398" maskUnits="userSpaceOnUse" x="-0.699951" y="-0.699951" width="21" height="22" fill="black">
<rect fill="white" x="-0.699951" y="-0.699951" width="21" height="22"/>
<path d="M19.5222 3.12669V4.85323C19.5239 5.2239 19.3234 5.5659 18.9996 5.74558C18.6758 5.92527 18.28 5.91486 17.9666 5.71781C17.7696 5.59715 17.5144 5.64055 17.3668 5.81763L17.2132 6.00426C17.0318 6.22214 16.7679 6.35582 16.484 6.37144C16.1993 6.3862 15.9215 6.27943 15.7201 6.07804L15.2201 5.59367C15.1672 5.54245 15.1368 5.47214 15.1351 5.39836C15.1342 5.32457 15.162 5.25339 15.2132 5.20044C15.32 5.0902 15.4962 5.08673 15.6064 5.1935L16.1064 5.67787C16.1984 5.76902 16.3252 5.81676 16.4536 5.80981C16.583 5.802 16.7028 5.74124 16.7844 5.64054L16.938 5.45652C17.2618 5.0633 17.8252 4.96781 18.2601 5.23343C18.4042 5.31937 18.5847 5.31937 18.7288 5.23343C18.8764 5.1527 18.9684 4.99732 18.9667 4.82892V3.12666C18.9667 1.8732 17.951 0.856677 16.6975 0.855788C15.6785 0.856656 14.8521 1.68305 14.8512 2.70213V18.9025C14.8538 18.9771 14.826 19.0492 14.7748 19.103C14.7227 19.1568 14.6524 19.1881 14.5778 19.1889C14.2887 19.1889 14.1463 19.353 13.9111 19.6334C13.6759 19.9138 13.3885 20.3 12.8174 20.3C12.2462 20.3 11.9554 19.9311 11.7219 19.6334C11.4884 19.3357 11.3529 19.1889 11.0552 19.1889C10.7575 19.1889 10.6238 19.353 10.3885 19.6334C10.1533 19.9138 9.8686 20.3 9.2948 20.3C8.72189 20.3 8.43456 19.9311 8.20105 19.6334C7.96754 19.3357 7.83474 19.1889 7.53439 19.1889C7.23403 19.1889 7.10557 19.353 6.87901 19.6334C6.65246 19.9138 6.35906 20.3 5.78786 20.3C5.21669 20.3 4.92589 19.9311 4.69411 19.6334C4.4632 19.3357 4.32518 19.1889 4.02745 19.1889C3.72972 19.1889 3.59603 19.353 3.37208 19.6334C3.14725 19.9138 2.8495 20.3 2.27833 20.3C1.70889 20.3 1.46671 19.9311 1.24449 19.6334C1.02227 19.3357 0.86429 19.1889 0.577825 19.1889C0.424179 19.1889 0.300049 19.0648 0.300049 18.9112V4.21769C0.300917 3.1795 0.714113 2.18386 1.44849 1.4486C2.18373 0.714224 3.17939 0.301027 4.21758 0.30016H14.2686C14.4223 0.30016 14.5464 0.42429 14.5464 0.577936C14.5464 0.731582 14.4223 0.855712 14.2686 0.855712H4.21758C3.3261 0.85658 2.47193 1.21162 1.84182 1.84182C1.21171 2.47201 0.856579 3.32619 0.855712 4.21758V18.6619C1.19338 18.7705 1.48244 18.9944 1.67169 19.2956C1.89391 19.5847 2.03799 19.7401 2.32706 19.7401C2.61612 19.7401 2.75588 19.576 2.99372 19.2956C3.23157 19.0153 3.51368 18.629 4.08747 18.629C4.66038 18.629 4.94771 19.0005 5.18122 19.2956C5.41473 19.5908 5.54753 19.7401 5.8366 19.7401C6.12566 19.7401 6.26542 19.576 6.49024 19.2956C6.71506 19.0153 7.01281 18.629 7.58399 18.629C8.15516 18.629 8.44596 19.0005 8.67773 19.2956C8.90864 19.5908 9.04667 19.7401 9.3444 19.7401C9.64213 19.7401 9.77582 19.576 9.99977 19.2956C10.2246 19.0153 10.5223 18.629 11.0953 18.629C11.6682 18.629 11.9572 19.0005 12.189 19.2956C12.4199 19.5908 12.5579 19.7401 12.8557 19.7401C13.1534 19.7401 13.2845 19.576 13.511 19.2956H13.5093C13.6985 18.9944 13.9885 18.7705 14.327 18.6619V2.70204C14.3279 1.3878 15.3834 0.318271 16.6977 0.300049C18.2584 0.300917 19.5222 1.56674 19.5222 3.12669ZM7.56648 3.82633C7.41283 3.82633 7.2887 3.95133 7.2887 4.10497V4.5225C6.61075 4.63622 6.09773 5.15357 6.09773 5.77336C6.09773 6.47563 6.76439 7.04853 7.56648 7.04853C8.06908 7.04853 8.47794 7.37058 8.47794 7.76642C8.47794 8.16226 8.0691 8.48604 7.56648 8.48604C7.20624 8.50513 6.8677 8.3133 6.70017 7.99384C6.63854 7.85235 6.47449 7.78811 6.333 7.84888C6.19237 7.91051 6.12727 8.07457 6.1889 8.21605C6.39897 8.65443 6.81736 8.95649 7.3 9.01814V9.43134C7.3 9.58498 7.42413 9.70911 7.57778 9.70911C7.73143 9.70911 7.85556 9.58498 7.85556 9.43134V9.0112C8.52222 8.90009 9.0448 8.38274 9.0448 7.76034C9.0448 7.05808 8.37813 6.48691 7.57778 6.48691C7.07345 6.48691 6.66459 6.16227 6.66459 5.76729C6.66459 5.37147 7.07343 5.04767 7.57778 5.04767C7.94236 5.02684 8.28351 5.22475 8.44671 5.55113C8.504 5.69349 8.66633 5.76207 8.80869 5.70478C8.95105 5.64662 9.01962 5.48516 8.96233 5.3428C8.75921 4.8949 8.33907 4.58325 7.85123 4.51816V4.10497C7.85123 4.03031 7.82084 3.95826 7.76702 3.90618C7.71407 3.85323 7.64113 3.82459 7.56648 3.82633ZM12.6776 11.8845H3.02228C2.86864 11.8845 2.74451 12.0095 2.74451 12.1623C2.74451 12.3159 2.86864 12.4401 3.02228 12.4401H12.6862C12.8399 12.4401 12.964 12.3159 12.964 12.1623C12.964 12.0095 12.8399 11.8845 12.6862 11.8845H12.6776Z"/>
</mask>
<path d="M19.5222 3.12669V4.85323C19.5239 5.2239 19.3234 5.5659 18.9996 5.74558C18.6758 5.92527 18.28 5.91486 17.9666 5.71781C17.7696 5.59715 17.5144 5.64055 17.3668 5.81763L17.2132 6.00426C17.0318 6.22214 16.7679 6.35582 16.484 6.37144C16.1993 6.3862 15.9215 6.27943 15.7201 6.07804L15.2201 5.59367C15.1672 5.54245 15.1368 5.47214 15.1351 5.39836C15.1342 5.32457 15.162 5.25339 15.2132 5.20044C15.32 5.0902 15.4962 5.08673 15.6064 5.1935L16.1064 5.67787C16.1984 5.76902 16.3252 5.81676 16.4536 5.80981C16.583 5.802 16.7028 5.74124 16.7844 5.64054L16.938 5.45652C17.2618 5.0633 17.8252 4.96781 18.2601 5.23343C18.4042 5.31937 18.5847 5.31937 18.7288 5.23343C18.8764 5.1527 18.9684 4.99732 18.9667 4.82892V3.12666C18.9667 1.8732 17.951 0.856677 16.6975 0.855788C15.6785 0.856656 14.8521 1.68305 14.8512 2.70213V18.9025C14.8538 18.9771 14.826 19.0492 14.7748 19.103C14.7227 19.1568 14.6524 19.1881 14.5778 19.1889C14.2887 19.1889 14.1463 19.353 13.9111 19.6334C13.6759 19.9138 13.3885 20.3 12.8174 20.3C12.2462 20.3 11.9554 19.9311 11.7219 19.6334C11.4884 19.3357 11.3529 19.1889 11.0552 19.1889C10.7575 19.1889 10.6238 19.353 10.3885 19.6334C10.1533 19.9138 9.8686 20.3 9.2948 20.3C8.72189 20.3 8.43456 19.9311 8.20105 19.6334C7.96754 19.3357 7.83474 19.1889 7.53439 19.1889C7.23403 19.1889 7.10557 19.353 6.87901 19.6334C6.65246 19.9138 6.35906 20.3 5.78786 20.3C5.21669 20.3 4.92589 19.9311 4.69411 19.6334C4.4632 19.3357 4.32518 19.1889 4.02745 19.1889C3.72972 19.1889 3.59603 19.353 3.37208 19.6334C3.14725 19.9138 2.8495 20.3 2.27833 20.3C1.70889 20.3 1.46671 19.9311 1.24449 19.6334C1.02227 19.3357 0.86429 19.1889 0.577825 19.1889C0.424179 19.1889 0.300049 19.0648 0.300049 18.9112V4.21769C0.300917 3.1795 0.714113 2.18386 1.44849 1.4486C2.18373 0.714224 3.17939 0.301027 4.21758 0.30016H14.2686C14.4223 0.30016 14.5464 0.42429 14.5464 0.577936C14.5464 0.731582 14.4223 0.855712 14.2686 0.855712H4.21758C3.3261 0.85658 2.47193 1.21162 1.84182 1.84182C1.21171 2.47201 0.856579 3.32619 0.855712 4.21758V18.6619C1.19338 18.7705 1.48244 18.9944 1.67169 19.2956C1.89391 19.5847 2.03799 19.7401 2.32706 19.7401C2.61612 19.7401 2.75588 19.576 2.99372 19.2956C3.23157 19.0153 3.51368 18.629 4.08747 18.629C4.66038 18.629 4.94771 19.0005 5.18122 19.2956C5.41473 19.5908 5.54753 19.7401 5.8366 19.7401C6.12566 19.7401 6.26542 19.576 6.49024 19.2956C6.71506 19.0153 7.01281 18.629 7.58399 18.629C8.15516 18.629 8.44596 19.0005 8.67773 19.2956C8.90864 19.5908 9.04667 19.7401 9.3444 19.7401C9.64213 19.7401 9.77582 19.576 9.99977 19.2956C10.2246 19.0153 10.5223 18.629 11.0953 18.629C11.6682 18.629 11.9572 19.0005 12.189 19.2956C12.4199 19.5908 12.5579 19.7401 12.8557 19.7401C13.1534 19.7401 13.2845 19.576 13.511 19.2956H13.5093C13.6985 18.9944 13.9885 18.7705 14.327 18.6619V2.70204C14.3279 1.3878 15.3834 0.318271 16.6977 0.300049C18.2584 0.300917 19.5222 1.56674 19.5222 3.12669ZM7.56648 3.82633C7.41283 3.82633 7.2887 3.95133 7.2887 4.10497V4.5225C6.61075 4.63622 6.09773 5.15357 6.09773 5.77336C6.09773 6.47563 6.76439 7.04853 7.56648 7.04853C8.06908 7.04853 8.47794 7.37058 8.47794 7.76642C8.47794 8.16226 8.0691 8.48604 7.56648 8.48604C7.20624 8.50513 6.8677 8.3133 6.70017 7.99384C6.63854 7.85235 6.47449 7.78811 6.333 7.84888C6.19237 7.91051 6.12727 8.07457 6.1889 8.21605C6.39897 8.65443 6.81736 8.95649 7.3 9.01814V9.43134C7.3 9.58498 7.42413 9.70911 7.57778 9.70911C7.73143 9.70911 7.85556 9.58498 7.85556 9.43134V9.0112C8.52222 8.90009 9.0448 8.38274 9.0448 7.76034C9.0448 7.05808 8.37813 6.48691 7.57778 6.48691C7.07345 6.48691 6.66459 6.16227 6.66459 5.76729C6.66459 5.37147 7.07343 5.04767 7.57778 5.04767C7.94236 5.02684 8.28351 5.22475 8.44671 5.55113C8.504 5.69349 8.66633 5.76207 8.80869 5.70478C8.95105 5.64662 9.01962 5.48516 8.96233 5.3428C8.75921 4.8949 8.33907 4.58325 7.85123 4.51816V4.10497C7.85123 4.03031 7.82084 3.95826 7.76702 3.90618C7.71407 3.85323 7.64113 3.82459 7.56648 3.82633ZM12.6776 11.8845H3.02228C2.86864 11.8845 2.74451 12.0095 2.74451 12.1623C2.74451 12.3159 2.86864 12.4401 3.02228 12.4401H12.6862C12.8399 12.4401 12.964 12.3159 12.964 12.1623C12.964 12.0095 12.8399 11.8845 12.6862 11.8845H12.6776Z" fill="#707493"/>
<path d="M12.6776 13.3888V13.2388H3.02228V13.3888V13.5388H12.6776V13.3888ZM12.6862 13.3888V13.2388H12.6776V13.3888V13.5388H12.6862V13.3888ZM19.5222 4.85323H19.2222L19.2222 4.85464L19.5222 4.85323ZM18.9996 5.74558L18.854 5.48327L18.854 5.48327L18.9996 5.74558ZM17.9666 5.71781L18.1264 5.46383L18.1233 5.46196L17.9666 5.71781ZM17.3668 5.81763L17.1363 5.62559L17.1352 5.62696L17.3668 5.81763ZM17.2132 6.00426L17.4437 6.19623L17.4448 6.19494L17.2132 6.00426ZM16.484 6.37144L16.4996 6.67104L16.5005 6.67099L16.484 6.37144ZM15.7201 6.07804L15.9323 5.86588L15.9289 5.86257L15.7201 6.07804ZM15.2201 5.59367L15.4289 5.3782L15.4287 5.37803L15.2201 5.59367ZM15.1351 5.39836L14.8351 5.40188L14.8352 5.40541L15.1351 5.39836ZM15.2132 5.20044L14.9977 4.99173L14.9976 4.99187L15.2132 5.20044ZM15.6064 5.1935L15.8152 4.97802L15.8151 4.978L15.6064 5.1935ZM16.1064 5.67787L16.3176 5.46472L16.3152 5.4624L16.1064 5.67787ZM16.4536 5.80981L16.4698 6.10938L16.4717 6.10927L16.4536 5.80981ZM16.7844 5.64054L16.5541 5.44825L16.5513 5.45167L16.7844 5.64054ZM16.938 5.45652L17.1683 5.64879L17.1696 5.64721L16.938 5.45652ZM18.2601 5.23343L18.1037 5.48947L18.1064 5.49109L18.2601 5.23343ZM18.7288 5.23343L18.5847 4.97006L18.5752 4.97577L18.7288 5.23343ZM18.9667 4.82892H18.6666L18.6667 4.83201L18.9667 4.82892ZM16.6975 0.855788L16.6978 0.555788L16.6973 0.555788L16.6975 0.855788ZM14.8512 2.70213L14.5512 2.70188V2.70213H14.8512ZM14.8512 18.9025H14.551L14.5514 18.9129L14.8512 18.9025ZM14.7748 19.103L14.9904 19.3116L14.9921 19.3098L14.7748 19.103ZM14.5778 19.1889V19.489L14.5813 19.4889L14.5778 19.1889ZM10.3885 19.6334L10.6184 19.8262L10.6184 19.8262L10.3885 19.6334ZM4.69411 19.6334L4.45705 19.8172L4.45739 19.8177L4.69411 19.6334ZM3.37208 19.6334L3.60613 19.8211L3.60648 19.8206L3.37208 19.6334ZM0.300049 4.21769L4.88162e-05 4.21744V4.21769H0.300049ZM1.44849 1.4486L1.23648 1.23634L1.23623 1.23659L1.44849 1.4486ZM4.21758 0.30016V0.00015977L4.21733 0.000159979L4.21758 0.30016ZM4.21758 0.855712V0.555712L4.21729 0.555712L4.21758 0.855712ZM0.855712 4.21758L0.555712 4.21729V4.21758H0.855712ZM0.855712 18.6619H0.555712V18.8807L0.763932 18.9476L0.855712 18.6619ZM1.67169 19.2956L1.41766 19.4552L1.4252 19.4672L1.43384 19.4785L1.67169 19.2956ZM2.99372 19.2956L2.76495 19.1016L2.76495 19.1016L2.99372 19.2956ZM8.67773 19.2956L8.91401 19.1108L8.91367 19.1103L8.67773 19.2956ZM9.99977 19.2956L9.76572 19.108L9.76537 19.1084L9.99977 19.2956ZM12.189 19.2956L12.4253 19.1108L12.4249 19.1103L12.189 19.2956ZM13.511 19.2956L13.7444 19.4842L14.1391 18.9956H13.511V19.2956ZM13.5093 19.2956L13.2553 19.136L12.9665 19.5956H13.5093V19.2956ZM14.327 18.6619L14.4186 18.9476L14.627 18.8808V18.6619H14.327ZM14.327 2.70204L14.027 2.70184V2.70204H14.327ZM16.6977 0.300049L16.6978 1.76728e-05L16.6935 7.7635e-05L16.6977 0.300049ZM7.56648 3.82633V4.12641L7.57345 4.12625L7.56648 3.82633ZM7.2887 4.5225L7.33833 4.81837L7.5887 4.77638V4.5225H7.2887ZM7.56648 8.48604V8.18604H7.55853L7.5506 8.18646L7.56648 8.48604ZM6.70017 7.99384L6.42513 8.11364L6.42946 8.12358L6.43449 8.13317L6.70017 7.99384ZM6.333 7.84888L6.21461 7.57322L6.21257 7.57411L6.333 7.84888ZM6.1889 8.21605L5.91368 8.33594L5.91836 8.3457L6.1889 8.21605ZM7.3 9.01814H7.60001V8.75402L7.33801 8.72056L7.3 9.01814ZM7.85556 9.0112L7.80624 8.71529L7.55556 8.75707V9.0112H7.85556ZM7.57778 5.04767V5.34767H7.58635L7.5949 5.34718L7.57778 5.04767ZM8.44671 5.55113L8.72502 5.43913L8.72048 5.42785L8.71503 5.41696L8.44671 5.55113ZM8.80869 5.70478L8.92069 5.98309L8.92214 5.9825L8.80869 5.70478ZM8.96233 5.3428L9.2409 5.2307L9.23555 5.2189L8.96233 5.3428ZM7.85123 4.51816H7.55123V4.7808L7.81155 4.81553L7.85123 4.51816ZM7.76702 3.90618L7.55486 4.11834L7.5584 4.12177L7.76702 3.90618ZM19.5222 3.12669H19.2222V4.85323H19.5222H19.8222V3.12669H19.5222ZM19.5222 4.85323L19.2222 4.85464C19.2234 5.11572 19.0822 5.35668 18.854 5.48327L18.9996 5.74558L19.1452 6.0079C19.5647 5.77512 19.8244 5.33208 19.8222 4.85183L19.5222 4.85323ZM18.9996 5.74558L18.854 5.48327C18.6257 5.61001 18.3468 5.6025 18.1263 5.46385L17.9666 5.71781L17.8069 5.97177C18.2132 6.22721 18.726 6.24053 19.1452 6.0079L18.9996 5.74558ZM17.9666 5.71781L18.1233 5.46196C17.7981 5.26281 17.3783 5.33518 17.1363 5.62559L17.3668 5.81763L17.5973 6.00968C17.6504 5.94592 17.7411 5.93148 17.81 5.97365L17.9666 5.71781ZM17.3668 5.81763L17.1352 5.62696L16.9816 5.81359L17.2132 6.00426L17.4448 6.19494L17.5984 6.00831L17.3668 5.81763ZM17.2132 6.00426L16.9826 5.8123C16.8541 5.96662 16.6676 6.06088 16.4675 6.07189L16.484 6.37144L16.5005 6.67099C16.8682 6.65075 17.2094 6.47766 17.4437 6.19623L17.2132 6.00426ZM16.484 6.37144L16.4685 6.07184C16.2686 6.0822 16.0736 6.00721 15.9323 5.8659L15.7201 6.07804L15.508 6.29018C15.7695 6.55164 16.13 6.69019 16.4996 6.67104L16.484 6.37144ZM15.7201 6.07804L15.9289 5.86257L15.4289 5.3782L15.2201 5.59367L15.0114 5.80914L15.5114 6.29351L15.7201 6.07804ZM15.2201 5.59367L15.4287 5.37803C15.4333 5.38247 15.4349 5.38746 15.435 5.3913L15.1351 5.39836L14.8352 5.40541C14.8387 5.55682 14.9011 5.70244 15.0116 5.8093L15.2201 5.59367ZM15.1351 5.39836L15.4351 5.39483C15.4351 5.39855 15.4337 5.40403 15.4288 5.40901L15.2132 5.20044L14.9976 4.99187C14.8903 5.10275 14.8333 5.25059 14.8351 5.40188L15.1351 5.39836ZM15.2132 5.20044L15.4287 5.40915C15.4211 5.41699 15.4074 5.41839 15.3977 5.409L15.6064 5.1935L15.8151 4.978C15.5849 4.75506 15.2188 4.76341 14.9977 4.99173L15.2132 5.20044ZM15.6064 5.1935L15.3977 5.40897L15.8977 5.89334L16.1064 5.67787L16.3152 5.4624L15.8152 4.97802L15.6064 5.1935ZM16.1064 5.67787L15.8953 5.891C16.0478 6.04205 16.2572 6.12087 16.4698 6.10938L16.4536 5.80981L16.4374 5.51025C16.3931 5.51265 16.3491 5.49598 16.3175 5.46474L16.1064 5.67787ZM16.4536 5.80981L16.4717 6.10927C16.6838 6.09646 16.8821 5.9965 17.0174 5.82942L16.7844 5.64054L16.5513 5.45167C16.5235 5.48598 16.4822 5.50754 16.4356 5.51036L16.4536 5.80981ZM16.7844 5.64054L17.0147 5.83281L17.1683 5.64879L16.938 5.45652L16.7077 5.26425L16.5541 5.44828L16.7844 5.64054ZM16.938 5.45652L17.1696 5.64721C17.3986 5.36913 17.7966 5.30189 18.1037 5.48945L18.2601 5.23343L18.4164 4.97741C17.8537 4.63373 17.125 4.75747 16.7064 5.26583L16.938 5.45652ZM18.2601 5.23343L18.1064 5.49109C18.3452 5.63348 18.6437 5.63348 18.8825 5.49109L18.7288 5.23343L18.5752 4.97577C18.5257 5.00526 18.4631 5.00525 18.4137 4.97577L18.2601 5.23343ZM18.7288 5.23343L18.8728 5.49662C19.1165 5.36328 19.2695 5.10612 19.2666 4.82583L18.9667 4.82892L18.6667 4.83201C18.6672 4.88852 18.6362 4.94212 18.5848 4.97024L18.7288 5.23343ZM18.9667 4.82892H19.2666V3.12666H18.9667H18.6667V4.82892H18.9667ZM18.9667 3.12666H19.2666C19.2666 1.70763 18.1169 0.556794 16.6978 0.555788L16.6975 0.855788L16.6973 1.15579C17.7852 1.15656 18.6667 2.03878 18.6667 3.12666H18.9667ZM16.6975 0.855788L16.6973 0.555788C15.5127 0.556797 14.5522 1.51731 14.5512 2.70188L14.8512 2.70213L15.1512 2.70239C15.1519 1.84879 15.8442 1.15651 16.6978 1.15579L16.6975 0.855788ZM14.8512 2.70213H14.5512V18.9025H14.8512H15.1512V2.70213H14.8512ZM14.8512 18.9025L14.5514 18.9129C14.5511 18.9061 14.5538 18.9001 14.5575 18.8962L14.7748 19.103L14.9921 19.3098C15.0983 19.1983 15.1565 19.0482 15.151 18.892L14.8512 18.9025ZM14.7748 19.103L14.5592 18.8944C14.5609 18.8927 14.5661 18.8891 14.5743 18.889L14.5778 19.1889L14.5813 19.4889C14.7387 19.4871 14.8846 19.421 14.9904 19.3116L14.7748 19.103ZM14.5778 19.1889V18.8889C14.1292 18.8889 13.9016 19.1779 13.6813 19.4406L13.9111 19.6334L14.1409 19.8262C14.2647 19.6787 14.3364 19.5971 14.4046 19.5458C14.4563 19.5068 14.5015 19.4889 14.5778 19.4889V19.1889ZM13.9111 19.6334L13.6813 19.4406C13.4285 19.7418 13.2275 20 12.8174 20V20.3V20.6C13.5496 20.6 13.9232 20.0857 14.1409 19.8262L13.9111 19.6334ZM12.8174 20.3V20C12.4056 20 12.1961 19.7519 11.9579 19.4482L11.7219 19.6334L11.4858 19.8185C11.7147 20.1103 12.0868 20.6 12.8174 20.6V20.3ZM11.7219 19.6334L11.9579 19.4482C11.845 19.3042 11.729 19.16 11.5906 19.058C11.435 18.9433 11.2633 18.8889 11.0552 18.8889V19.1889V19.4889C11.1449 19.4889 11.1897 19.5079 11.2346 19.541C11.2968 19.5868 11.3652 19.6648 11.4858 19.8185L11.7219 19.6334ZM11.0552 19.1889V18.8889C10.8395 18.8889 10.6681 18.9522 10.5169 19.0672C10.384 19.1682 10.2681 19.3102 10.1587 19.4406L10.3885 19.6334L10.6184 19.8262C10.7443 19.6762 10.8128 19.596 10.88 19.5448C10.9288 19.5077 10.9732 19.4889 11.0552 19.4889V19.1889ZM10.3885 19.6334L10.1587 19.4406C9.90556 19.7423 9.70732 20 9.2948 20V20.3V20.6C10.0299 20.6 10.401 20.0852 10.6184 19.8262L10.3885 19.6334ZM9.2948 20.3V20C8.88175 20 8.67595 19.7528 8.43711 19.4482L8.20105 19.6334L7.96499 19.8185C8.19316 20.1095 8.56204 20.6 9.2948 20.6V20.3ZM8.20105 19.6334L8.43711 19.4482C8.32475 19.305 8.20918 19.1604 8.07115 19.0583C7.91536 18.9431 7.74332 18.8889 7.53439 18.8889V19.1889V19.4889C7.62581 19.4889 7.67034 19.5081 7.71442 19.5407C7.77625 19.5865 7.84384 19.6641 7.96499 19.8185L8.20105 19.6334ZM7.53439 19.1889V18.8889C7.3179 18.8889 7.14591 18.9519 6.99506 19.069C6.8633 19.1713 6.75054 19.3151 6.64567 19.4448L6.87901 19.6334L7.11236 19.8219C7.23404 19.6713 7.29879 19.5928 7.36299 19.543C7.4081 19.508 7.45052 19.4889 7.53439 19.4889V19.1889ZM6.87901 19.6334L6.64567 19.4448C6.4073 19.7398 6.19773 20 5.78786 20V20.3V20.6C6.52039 20.6 6.89762 20.0877 7.11236 19.8219L6.87901 19.6334ZM5.78786 20.3V20C5.37626 20 5.16658 19.7519 4.93084 19.4491L4.69411 19.6334L4.45739 19.8177C4.6852 20.1103 5.05712 20.6 5.78786 20.6V20.3ZM4.69411 19.6334L4.93117 19.4495C4.81871 19.3045 4.70276 19.1601 4.56345 19.0577C4.40752 18.9432 4.23526 18.8889 4.02745 18.8889V19.1889V19.4889C4.11737 19.4889 4.16299 19.5081 4.20823 19.5413C4.27009 19.5867 4.3386 19.6645 4.45705 19.8172L4.69411 19.6334ZM4.02745 19.1889V18.8889C3.81211 18.8889 3.63987 18.952 3.48889 19.0685C3.35572 19.1712 3.24285 19.3145 3.13767 19.4462L3.37208 19.6334L3.60648 19.8206C3.72526 19.6719 3.79121 19.593 3.8553 19.5436C3.90159 19.5079 3.94506 19.4889 4.02745 19.4889V19.1889ZM3.37208 19.6334L3.13803 19.4457C2.90335 19.7384 2.68869 20 2.27833 20V20.3V20.6C3.01031 20.6 3.39116 20.0891 3.60612 19.8211L3.37208 19.6334ZM2.27833 20.3V20C1.87896 20 1.72063 19.7698 1.48491 19.4539L1.24449 19.6334L1.00407 19.8128C1.21279 20.0925 1.53881 20.6 2.27833 20.6V20.3ZM1.24449 19.6334L1.48491 19.4539C1.37185 19.3025 1.25357 19.1586 1.11003 19.0557C0.953806 18.9437 0.781011 18.8889 0.577825 18.8889V19.1889V19.4889C0.661104 19.4889 0.71053 19.5075 0.760461 19.5433C0.823089 19.5882 0.894908 19.6666 1.00407 19.8128L1.24449 19.6334ZM0.577825 19.1889V18.8889C0.589865 18.8889 0.600049 18.8991 0.600049 18.9112H0.300049H4.88162e-05C4.88162e-05 19.2305 0.258493 19.4889 0.577825 19.4889V19.1889ZM0.300049 18.9112H0.600049V4.21769H0.300049H4.88162e-05V18.9112H0.300049ZM0.300049 4.21769L0.600049 4.21794C0.60085 3.25933 0.982375 2.33979 1.66075 1.6606L1.44849 1.4486L1.23623 1.23659C0.445851 2.02793 0.000983447 3.09966 4.89354e-05 4.21744L0.300049 4.21769ZM1.44849 1.4486L1.66049 1.66086C2.33966 0.982488 3.25922 0.60096 4.21783 0.60016L4.21758 0.30016L4.21733 0.000159979C3.09956 0.00109306 2.02779 0.445961 1.23648 1.23634L1.44849 1.4486ZM4.21758 0.30016V0.60016H14.2686V0.30016V0.00015986H4.21758V0.30016ZM14.2686 0.30016V0.60016C14.2566 0.60016 14.2464 0.589976 14.2464 0.577936H14.5464H14.8464C14.8464 0.258604 14.588 0.00015986 14.2686 0.00015986V0.30016ZM14.5464 0.577936H14.2464C14.2464 0.565896 14.2566 0.555712 14.2686 0.555712V0.855712V1.15571C14.588 1.15571 14.8464 0.897268 14.8464 0.577936H14.5464ZM14.2686 0.855712V0.555712H4.21758V0.855712V1.15571H14.2686V0.855712ZM4.21758 0.855712L4.21729 0.555712C3.24619 0.556658 2.31587 0.94341 1.62967 1.6297L1.84182 1.84182L2.05396 2.05393C2.62799 1.47983 3.40601 1.1565 4.21787 1.15571L4.21758 0.855712ZM1.84182 1.84182L1.62967 1.6297C0.943516 2.31595 0.556657 3.24625 0.555712 4.21729L0.855712 4.21758L1.15571 4.21787C1.1565 3.40612 1.4799 2.62808 2.05396 2.05393L1.84182 1.84182ZM0.855712 4.21758H0.555712V18.6619H0.855712H1.15571V4.21758H0.855712ZM0.855712 18.6619L0.763932 18.9476C1.03452 19.0345 1.26607 19.2139 1.41766 19.4552L1.67169 19.2956L1.92571 19.136C1.69882 18.7749 1.35223 18.5064 0.947493 18.3763L0.855712 18.6619ZM1.67169 19.2956L1.43384 19.4785C1.5426 19.6199 1.65698 19.7632 1.79426 19.8662C1.94683 19.9807 2.11847 20.0401 2.32706 20.0401V19.7401V19.4401C2.24658 19.4401 2.20165 19.4218 2.15435 19.3863C2.09177 19.3393 2.02299 19.2604 1.90953 19.1128L1.67169 19.2956ZM2.32706 19.7401V20.0401C2.54014 20.0401 2.71017 19.9758 2.8603 19.8625C2.99335 19.7621 3.11068 19.6215 3.2225 19.4897L2.99372 19.2956L2.76495 19.1016C2.63892 19.2501 2.56745 19.3318 2.4989 19.3835C2.44743 19.4224 2.40305 19.4401 2.32706 19.4401V19.7401ZM2.99372 19.2956L3.2225 19.4897C3.48024 19.1859 3.67495 18.929 4.08747 18.929V18.629V18.329C3.3524 18.329 2.9829 18.8446 2.76495 19.1016L2.99372 19.2956ZM4.08747 18.629V18.929C4.50026 18.929 4.70554 19.1779 4.94595 19.4818L5.18122 19.2956L5.41649 19.1095C5.18988 18.8231 4.8205 18.329 4.08747 18.329V18.629ZM5.18122 19.2956L4.94595 19.4818C5.0579 19.6233 5.17281 19.7666 5.30757 19.8681C5.46009 19.983 5.62946 20.0401 5.8366 20.0401V19.7401V19.4401C5.75467 19.4401 5.7131 19.4224 5.66859 19.3889C5.6063 19.342 5.53805 19.2631 5.41649 19.1095L5.18122 19.2956ZM5.8366 19.7401V20.0401C6.04931 20.0401 6.22027 19.9759 6.37008 19.861C6.50346 19.7587 6.61732 19.6167 6.72429 19.4833L6.49024 19.2956L6.25619 19.108C6.13833 19.2549 6.0699 19.3351 6.00493 19.3849C5.9564 19.4222 5.91295 19.4401 5.8366 19.4401V19.7401ZM6.49024 19.2956L6.72429 19.4833C6.95896 19.1906 7.17362 18.929 7.58399 18.929V18.629V18.329C6.852 18.329 6.47116 18.8399 6.25619 19.108L6.49024 19.2956ZM7.58399 18.629V18.929C7.99531 18.929 8.20452 19.1788 8.4418 19.4809L8.67773 19.2956L8.91367 19.1103C8.6874 18.8222 8.31501 18.329 7.58399 18.329V18.629ZM8.67773 19.2956L8.44146 19.4805C8.55343 19.6236 8.66928 19.7676 8.80789 19.8699C8.96321 19.9845 9.13546 20.0401 9.3444 20.0401V19.7401V19.4401C9.25561 19.4401 9.20997 19.421 9.16413 19.3871C9.10157 19.341 9.03295 19.2628 8.91401 19.1108L8.67773 19.2956ZM9.3444 19.7401V20.0401C9.55974 20.0401 9.73198 19.977 9.88295 19.8606C10.0161 19.7579 10.129 19.6145 10.2342 19.4829L9.99977 19.2956L9.76537 19.1084C9.64659 19.2571 9.58064 19.336 9.51655 19.3854C9.47026 19.4211 9.42679 19.4401 9.3444 19.4401V19.7401ZM9.99977 19.2956L10.2338 19.4833C10.4683 19.1909 10.683 18.929 11.0953 18.929V18.629V18.329C10.3617 18.329 9.98092 18.8396 9.76572 19.108L9.99977 19.2956ZM11.0953 18.629V18.929C11.5082 18.929 11.7156 19.1785 11.9531 19.4809L12.189 19.2956L12.4249 19.1103C12.1989 18.8225 11.8282 18.329 11.0953 18.329V18.629ZM12.189 19.2956L11.9527 19.4805C12.0647 19.6236 12.1805 19.7676 12.3192 19.8699C12.4745 19.9845 12.6467 20.0401 12.8557 20.0401V19.7401V19.4401C12.7669 19.4401 12.7212 19.421 12.6754 19.3871C12.6128 19.341 12.5442 19.2628 12.4253 19.1108L12.189 19.2956ZM12.8557 19.7401V20.0401C13.0713 20.0401 13.243 19.9768 13.3936 19.8603C13.5258 19.758 13.6389 19.6148 13.7444 19.4842L13.511 19.2956L13.2777 19.1071C13.1567 19.2569 13.0909 19.3358 13.0265 19.3857C12.9805 19.4213 12.9378 19.4401 12.8557 19.4401V19.7401ZM13.511 19.2956V18.9956H13.5093V19.2956V19.5956H13.511V19.2956ZM13.5093 19.2956L13.7633 19.4552C13.9147 19.2143 14.1469 19.0347 14.4186 18.9476L14.327 18.6619L14.2354 18.3763C13.83 18.5062 13.4824 18.7745 13.2553 19.136L13.5093 19.2956ZM14.327 18.6619H14.627V2.70204H14.327H14.027V18.6619H14.327ZM14.327 2.70204L14.627 2.70223C14.6278 1.552 15.5515 0.615969 16.7018 0.60002L16.6977 0.300049L16.6935 7.7635e-05C15.2153 0.020573 14.028 1.2236 14.027 2.70184L14.327 2.70204ZM16.6977 0.300049L16.6975 0.600049C18.0925 0.600825 19.2222 1.73223 19.2222 3.12669H19.5222H19.8222C19.8222 1.40125 18.4243 0.00100905 16.6978 4.88758e-05L16.6977 0.300049ZM7.56648 3.82633V3.52633C7.24593 3.52633 6.9887 3.78686 6.9887 4.10497H7.2887H7.5887C7.5887 4.11579 7.57974 4.12633 7.56648 4.12633V3.82633ZM7.2887 4.10497H6.9887V4.5225H7.2887H7.5887V4.10497H7.2887ZM7.2887 4.5225L7.23908 4.22664C6.45124 4.35878 5.79773 4.9745 5.79773 5.77336H6.09773H6.39773C6.39773 5.33264 6.77026 4.91366 7.33833 4.81837L7.2887 4.5225ZM6.09773 5.77336H5.79773C5.79773 6.68054 6.64087 7.34853 7.56648 7.34853V7.04853V6.74853C6.88792 6.74853 6.39773 6.27071 6.39773 5.77336H6.09773ZM7.56648 7.04853V7.34853C7.97408 7.34853 8.17794 7.59905 8.17794 7.76642H8.47794H8.77794C8.77794 7.14211 8.16408 6.74853 7.56648 6.74853V7.04853ZM8.47794 7.76642H8.17794C8.17794 7.9346 7.97308 8.18604 7.56648 8.18604V8.48604V8.78604C8.16512 8.78604 8.77794 8.38993 8.77794 7.76642H8.47794ZM7.56648 8.48604L7.5506 8.18646C7.30696 8.19937 7.07869 8.06966 6.96585 7.85451L6.70017 7.99384L6.43449 8.13317C6.65672 8.55693 7.10551 8.81089 7.58236 8.78562L7.56648 8.48604ZM6.70017 7.99384L6.97521 7.87404C6.8472 7.58015 6.50673 7.44777 6.21461 7.57322L6.333 7.84888L6.45138 8.12453C6.44224 8.12846 6.42988 8.12455 6.42513 8.11364L6.70017 7.99384ZM6.333 7.84888L6.21257 7.57411C5.92131 7.70176 5.78579 8.04184 5.91386 8.33586L6.1889 8.21605L6.46394 8.09625C6.46875 8.10729 6.46343 8.11926 6.45342 8.12365L6.333 7.84888ZM6.1889 8.21605L5.91836 8.3457C6.17246 8.87597 6.67846 9.24119 7.262 9.31572L7.3 9.01814L7.33801 8.72056C6.95626 8.6718 6.62547 8.43289 6.45944 8.08641L6.1889 8.21605ZM7.3 9.01814H7V9.43134H7.3H7.60001V9.01814H7.3ZM7.3 9.43134H7C7 9.75067 7.25845 10.0091 7.57778 10.0091V9.70911V9.40911C7.58982 9.40911 7.60001 9.4193 7.60001 9.43134H7.3ZM7.57778 9.70911V10.0091C7.89711 10.0091 8.15556 9.75067 8.15556 9.43134H7.85556H7.55556C7.55556 9.4193 7.56574 9.40911 7.57778 9.40911V9.70911ZM7.85556 9.43134H8.15556V9.0112H7.85556H7.55556V9.43134H7.85556ZM7.85556 9.0112L7.90488 9.30712C8.68056 9.17784 9.3448 8.5628 9.3448 7.76034H9.0448H8.74479C8.74479 8.20268 8.36388 8.62235 7.80624 8.71529L7.85556 9.0112ZM9.0448 7.76034H9.3448C9.3448 6.85289 8.50133 6.18691 7.57778 6.18691V6.48691V6.78691C8.25493 6.78691 8.74479 7.26328 8.74479 7.76034H9.0448ZM7.57778 6.48691V6.18691C7.16932 6.18691 6.96459 5.93448 6.96459 5.76729H6.66459H6.36459C6.36459 6.39005 6.97758 6.78691 7.57778 6.78691V6.48691ZM6.66459 5.76729H6.96459C6.96459 5.59944 7.16906 5.34767 7.57778 5.34767V5.04767V4.74767C6.9778 4.74767 6.36459 5.1435 6.36459 5.76729H6.66459ZM7.57778 5.04767L7.5949 5.34718C7.83971 5.33319 8.06872 5.46598 8.17838 5.6853L8.44671 5.55113L8.71503 5.41696C8.4983 4.98353 8.045 4.72048 7.56067 4.74816L7.57778 5.04767ZM8.44671 5.55113L8.1684 5.66314C8.28795 5.9602 8.62562 6.10183 8.92069 5.98309L8.80869 5.70478L8.69668 5.42647C8.70703 5.42231 8.72005 5.42679 8.72502 5.43913L8.44671 5.55113ZM8.80869 5.70478L8.92214 5.9825C9.21663 5.86219 9.35984 5.52699 9.24064 5.2308L8.96233 5.3428L8.68402 5.45481C8.67941 5.44334 8.68546 5.43105 8.69523 5.42706L8.80869 5.70478ZM8.96233 5.3428L9.23555 5.2189C8.98961 4.67659 8.4811 4.29954 7.8909 4.2208L7.85123 4.51816L7.81155 4.81553C8.19704 4.86696 8.5288 5.1132 8.68911 5.46671L8.96233 5.3428ZM7.85123 4.51816H8.15123V4.10497H7.85123H7.55123V4.51816H7.85123ZM7.85123 4.10497H8.15123C8.15123 3.94933 8.08807 3.7994 7.97565 3.6906L7.76702 3.90618L7.5584 4.12177C7.55361 4.11713 7.55123 4.1113 7.55123 4.10497H7.85123ZM7.76702 3.90618L7.97916 3.69405C7.86719 3.58208 7.71463 3.5228 7.55951 3.52641L7.56648 3.82633L7.57345 4.12625C7.56763 4.12638 7.56096 4.12438 7.55489 4.11831L7.76702 3.90618ZM12.6776 11.8845V11.5845H3.02228V11.8845V12.1845H12.6776V11.8845ZM3.02228 11.8845V11.5845C2.70234 11.5845 2.44451 11.8444 2.44451 12.1623H2.74451H3.04451C3.04451 12.1746 3.03493 12.1845 3.02228 12.1845V11.8845ZM2.74451 12.1623H2.44451C2.44451 12.4816 2.70295 12.7401 3.02228 12.7401V12.4401V12.1401C3.03432 12.1401 3.04451 12.1502 3.04451 12.1623H2.74451ZM3.02228 12.4401V12.7401H12.6862V12.4401V12.1401H3.02228V12.4401ZM12.6862 12.4401V12.7401C13.0056 12.7401 13.264 12.4816 13.264 12.1623H12.964H12.664C12.664 12.1502 12.6742 12.1401 12.6862 12.1401V12.4401ZM12.964 12.1623H13.264C13.264 11.8444 13.0062 11.5845 12.6862 11.5845V11.8845V12.1845C12.6736 12.1845 12.664 12.1746 12.664 12.1623H12.964ZM12.6862 11.8845V11.5845H12.6776V11.8845V12.1845H12.6862V11.8845Z" fill="#707493" mask="url(#path-1-outside-1_1749_3398)"/>
</svg>
