<svg width="21" height="20" viewBox="0 0 21 20" fill="none" xmlns="http://www.w3.org/2000/svg">
<path d="M13.3503 0.000177008C13.1778 -0.00254499 13.0043 0.0301189 12.82 0.06986C12.5251 0.133283 12.2097 0.232649 11.8945 0.336425C11.5792 0.439997 11.2685 0.546454 11.0048 0.626168C10.7411 0.705923 10.5092 0.753285 10.4351 0.753421C10.3609 0.753381 10.1341 0.7081 9.87033 0.62889C9.60648 0.549544 9.29257 0.442202 8.97712 0.33912C8.6617 0.236092 8.34232 0.133419 8.04734 0.0704588C7.75233 0.00744462 7.48997 -0.0395098 7.20899 0.0522215C6.92797 0.143817 6.74222 0.340821 6.54083 0.565617C6.33944 0.790427 6.13799 1.05858 5.94372 1.32802C5.74944 1.59744 5.56241 1.86789 5.39584 2.08761C5.22926 2.3073 5.06821 2.47779 5.00831 2.52154C4.94792 2.56427 4.7377 2.66832 4.47731 2.75858C4.21693 2.84881 3.90126 2.94263 3.58551 3.04483C3.26985 3.14717 2.95516 3.2553 2.67963 3.37819C2.40404 3.50095 2.16565 3.61815 1.99249 3.85854C1.81894 4.09806 1.78144 4.36546 1.75055 4.66595C1.71967 4.96646 1.71585 5.29784 1.71679 5.63019C1.71772 5.96253 1.72331 6.2926 1.7175 6.56842C1.7117 6.84427 1.68338 7.07944 1.66053 7.15007C1.63765 7.22071 1.52473 7.42114 1.36795 7.64802C1.21116 7.87483 1.01121 8.14178 0.81585 8.41041C0.62048 8.67903 0.427335 8.95063 0.276404 9.21219C0.125473 9.47373 -0.000239737 9.71374 3.43302e-07 10.0097C0.000236082 10.3058 0.126452 10.5425 0.277807 10.8038C0.429162 11.0651 0.621457 11.3351 0.817251 11.6034C1.01305 11.8718 1.21219 12.1358 1.36935 12.3623C1.52653 12.5889 1.64039 12.7925 1.66334 12.8631C1.68625 12.9339 1.71757 13.1675 1.72383 13.4433C1.7301 13.7192 1.72422 14.0499 1.72382 14.3823C1.72343 14.7146 1.72553 15.0468 1.75688 15.3472C1.78825 15.6476 1.82421 15.9132 1.99812 16.1525C2.17203 16.3918 2.41581 16.5113 2.69159 16.6336C2.9674 16.7558 3.2816 16.8616 3.59746 16.9634C3.91331 17.0652 4.23057 17.1624 4.49067 17.2532C4.75083 17.3441 4.96167 17.441 5.02168 17.4846C5.08172 17.5283 5.24157 17.6998 5.40849 17.9192C5.57543 18.1387 5.76588 18.4083 5.9606 18.6774C6.15531 18.9465 6.35389 19.2173 6.55561 19.4419C6.75731 19.6665 6.94402 19.8578 7.22516 19.949C7.50628 20.0402 7.77215 19.9935 8.06703 19.93C8.36194 19.8665 8.67739 19.7679 8.99259 19.6641C9.30789 19.5605 9.61859 19.4534 9.88229 19.3736C10.146 19.2939 10.3779 19.2465 10.452 19.2463C10.5261 19.2463 10.7537 19.2923 11.0174 19.3715C11.2813 19.4508 11.5945 19.5582 11.9099 19.6612C12.2254 19.7643 12.5426 19.8621 12.8376 19.925C13.1326 19.988 13.395 20.0349 13.676 19.9432C13.957 19.8516 14.1449 19.6597 14.3462 19.4347C14.5475 19.2097 14.7477 18.9375 14.9419 18.6681C15.1362 18.3987 15.3254 18.1318 15.4919 17.912C15.6585 17.6923 15.8174 17.5182 15.8773 17.4746C15.9377 17.4318 16.1501 17.332 16.4105 17.2418C16.6708 17.1515 16.9838 17.0537 17.2995 16.9513C17.6151 16.849 17.9298 16.7408 18.2053 16.6179C18.4809 16.4952 18.7222 16.3817 18.8953 16.1411C19.0688 15.9016 19.1056 15.6349 19.1365 15.3344C19.1674 15.0339 19.1698 14.6983 19.1689 14.3659C19.1679 14.0336 19.1623 13.7028 19.1682 13.427C19.174 13.1512 19.2037 12.9202 19.2265 12.8496C19.2494 12.7789 19.3609 12.5742 19.5177 12.3474C19.6745 12.1206 19.8759 11.8586 20.0712 11.5899C20.2666 11.3213 20.4576 11.0448 20.6085 10.7832C20.7595 10.5217 20.8873 10.2866 20.8871 9.9906C20.8868 9.69458 20.7613 9.45716 20.61 9.19586C20.4586 8.93456 20.2642 8.66029 20.0684 8.39196C19.8726 8.12364 19.6735 7.86035 19.5163 7.63379C19.3591 7.40719 19.2446 7.20292 19.2216 7.13233C19.1988 7.06183 19.1702 6.83213 19.1639 6.5563C19.1577 6.28048 19.1628 5.95042 19.1632 5.61809C19.1636 5.28574 19.1601 4.94937 19.1288 4.64893C19.0974 4.34847 19.0614 4.08223 18.8875 3.8429C18.7136 3.6036 18.472 3.48904 18.1962 3.36677C17.9204 3.24442 17.6041 3.13449 17.2882 3.03269C16.9723 2.93088 16.6572 2.83793 16.3971 2.74716C16.1369 2.65625 15.924 2.55443 15.864 2.51084C15.804 2.46742 15.6434 2.29634 15.4765 2.0769C15.3095 1.85744 15.1198 1.58713 14.9251 1.31802C14.7303 1.04891 14.5332 0.782329 14.3315 0.557724C14.1298 0.333132 13.9437 0.141857 13.6626 0.0506291C13.5572 0.016468 13.4538 0.00194631 13.3503 0.000177008ZM10.4421 6.17388C10.5043 6.17392 10.5655 6.19007 10.6196 6.22076C10.6737 6.25145 10.7189 6.29563 10.7509 6.349L12.6435 9.50127L15.6607 7.75C15.7244 7.71314 15.7978 7.69665 15.8711 7.70275C15.9444 7.70885 16.014 7.73725 16.0707 7.78412C16.1274 7.831 16.1684 7.89411 16.1881 7.96496C16.2079 8.03581 16.2054 8.11101 16.1812 8.18044L14.3104 13.5819C14.2858 13.6526 14.2398 13.7139 14.1788 13.7573C14.1178 13.8006 14.0448 13.8239 13.97 13.8238H6.91781C6.84296 13.8239 6.76996 13.8006 6.70896 13.7572C6.64795 13.7139 6.60197 13.6526 6.5774 13.5819L4.70307 8.18043C4.67866 8.11091 4.67617 8.03557 4.69593 7.96459C4.71568 7.89361 4.75673 7.83039 4.81355 7.78347C4.87036 7.73655 4.94019 7.70819 5.01363 7.70221C5.08707 7.69622 5.16057 7.71291 5.22423 7.75001L8.24146 9.50128L10.1341 6.349C10.166 6.29573 10.2111 6.25162 10.2651 6.22093C10.319 6.19025 10.38 6.17404 10.4421 6.17388Z" fill="#6548FF"/>
</svg>
