<svg width="20" height="20" viewBox="0 0 20 20" fill="none" xmlns="http://www.w3.org/2000/svg">
<path fill-rule="evenodd" clip-rule="evenodd" d="M9.3325 2.1558C9.53671 2.04241 9.76643 1.98291 10 1.98291C10.2336 1.98291 10.4633 2.04241 10.6675 2.1558L16.6675 5.48913C17.1042 5.73163 17.375 6.19163 17.375 6.69163V13.3083C17.375 13.8083 17.1042 14.2683 16.6675 14.5108L10.6675 17.8441C10.4633 17.9575 10.2336 18.017 10 18.017C9.76643 18.017 9.53671 17.9575 9.3325 17.8441L3.3325 14.5108C3.11802 14.3917 2.93931 14.2174 2.8149 14.0059C2.6905 13.7945 2.62493 13.5536 2.625 13.3083V6.69163C2.625 6.19163 2.89583 5.73163 3.3325 5.48913L9.3325 2.1558ZM10.0608 3.24913C10.0422 3.23877 10.0213 3.23333 10 3.23333C9.97871 3.23333 9.95777 3.23877 9.93917 3.24913L3.93917 6.58247C3.91984 6.59323 3.90372 6.60893 3.89245 6.62796C3.88117 6.647 3.87515 6.66868 3.875 6.6908V13.3091C3.875 13.3541 3.9 13.3958 3.93917 13.4175L9.93917 16.7508C9.95777 16.7612 9.97871 16.7666 10 16.7666C10.0213 16.7666 10.0422 16.7612 10.0608 16.7508L16.0608 13.4175C16.0802 13.4067 16.0963 13.391 16.1076 13.372C16.1188 13.3529 16.1248 13.3313 16.125 13.3091V6.69163C16.125 6.66937 16.119 6.64752 16.1078 6.62832C16.0965 6.60913 16.0803 6.5933 16.0608 6.58247L10.0608 3.24913Z" fill="#707493"/>
<path fill-rule="evenodd" clip-rule="evenodd" d="M6.04175 9.99996C6.04175 8.95014 6.45879 7.94333 7.20112 7.201C7.94345 6.45866 8.95027 6.04163 10.0001 6.04163C11.0499 6.04163 12.0567 6.45866 12.799 7.201C13.5414 7.94333 13.9584 8.95014 13.9584 9.99996C13.9584 11.0498 13.5414 12.0566 12.799 12.7989C12.0567 13.5413 11.0499 13.9583 10.0001 13.9583C8.95027 13.9583 7.94345 13.5413 7.20112 12.7989C6.45879 12.0566 6.04175 11.0498 6.04175 9.99996ZM10.0001 7.29163C9.28179 7.29163 8.59291 7.57697 8.085 8.08488C7.57709 8.59279 7.29175 9.28166 7.29175 9.99996C7.29175 10.7183 7.57709 11.4071 8.085 11.915C8.59291 12.423 9.28179 12.7083 10.0001 12.7083C10.7184 12.7083 11.4073 12.423 11.9152 11.915C12.4231 11.4071 12.7084 10.7183 12.7084 9.99996C12.7084 9.28166 12.4231 8.59279 11.9152 8.08488C11.4073 7.57697 10.7184 7.29163 10.0001 7.29163Z" fill="#707493"/>
</svg>
