<svg width="25" height="20" viewBox="0 0 25 20" fill="none" xmlns="http://www.w3.org/2000/svg">
<path d="M21.0746 8.09921C21.9214 7.45337 22.4704 6.43743 22.4704 5.29406C22.4704 3.34799 20.8871 1.76465 18.941 1.76465C16.995 1.76465 15.4116 3.34799 15.4116 5.29406C15.4116 6.44236 15.9655 7.46071 16.816 8.10532C16.7266 8.14576 16.6334 8.17885 16.5464 8.2242C16.2584 8.3737 16.1457 8.72911 16.2952 9.01708C16.4447 9.30629 16.8013 9.4178 17.0881 9.2683C17.6506 8.97663 18.2915 8.82221 18.941 8.82221C21.2106 8.82221 23.0587 10.669 23.0587 12.9399V15.2928C23.0587 16.2659 22.267 17.0575 21.294 17.0575H18.3172C17.9925 17.0575 17.729 17.321 17.729 17.6457C17.729 17.9705 17.9925 18.234 18.3172 18.234H21.294C22.9153 18.234 24.2351 16.9141 24.2351 15.2928V12.9399C24.2351 10.7793 22.9337 8.92041 21.0747 8.09782L21.0746 8.09921ZM16.588 5.29406C16.588 3.99627 17.6432 2.94112 18.941 2.94112C20.2388 2.94112 21.2939 3.99627 21.2939 5.29406C21.2939 6.59185 20.2388 7.647 18.941 7.647C17.6432 7.647 16.588 6.59185 16.588 5.29406Z" fill="#707493"/>
<path d="M7.93987 9.01842C8.08938 8.73043 7.97664 8.37503 7.68865 8.22554C7.60164 8.1802 7.5085 8.14588 7.41904 8.10667C8.27074 7.46205 8.82347 6.44367 8.82347 5.2954C8.82347 3.34933 7.24013 1.76599 5.29405 1.76599C3.34798 1.76599 1.76464 3.34933 1.76464 5.2954C1.76464 6.44 2.31489 7.45594 3.16047 8.10055C1.3014 8.92285 0 10.7819 0 12.9426V15.2955C0 16.9169 1.31984 18.2367 2.94118 18.2367H5.9179C6.24267 18.2367 6.50613 17.9732 6.50613 17.6485C6.50613 17.3237 6.24265 17.0602 5.9179 17.0602H2.94118C1.96813 17.0602 1.17647 16.2686 1.17647 15.2955V12.9426C1.17647 10.6718 3.0245 8.82494 5.29412 8.82494C5.94362 8.82494 6.58456 8.97935 7.14704 9.27103C7.43381 9.41931 7.79043 9.30779 7.93992 9.0198L7.93987 9.01842ZM2.94097 5.29418C2.94097 3.99639 3.99612 2.94124 5.29391 2.94124C6.5917 2.94124 7.64685 3.99639 7.64685 5.29418C7.64685 6.59197 6.5917 7.64712 5.29391 7.64712C3.99612 7.64712 2.94097 6.59197 2.94097 5.29418Z" fill="#707493"/>
<path d="M14.4556 7.50243C15.5291 6.75856 16.235 5.51959 16.235 4.11765C16.235 1.84681 14.387 0 12.1173 0C9.84773 0 7.9997 1.84681 7.9997 4.11765C7.9997 5.51962 8.70558 6.75859 9.77912 7.50243C7.36491 8.44238 5.64673 10.7868 5.64673 13.5294V17.0588C5.64673 18.6802 6.96657 20 8.58791 20H15.6467C17.2681 20 18.5879 18.6802 18.5879 17.0588V13.5294C18.5879 10.7868 16.8698 8.44235 14.4556 7.50243ZM9.1762 4.11765C9.1762 2.49631 10.496 1.17647 12.1174 1.17647C13.7387 1.17647 15.0586 2.49631 15.0586 4.11765C15.0586 5.73898 13.7387 7.05882 12.1174 7.05882C10.496 7.05882 9.1762 5.73898 9.1762 4.11765ZM17.4115 17.0588C17.4115 18.0319 16.6198 18.8235 15.6468 18.8235H8.58797C7.61492 18.8235 6.82326 18.0319 6.82326 17.0588V13.5294C6.82326 10.6103 9.19826 8.23529 12.1174 8.23529C15.0365 8.23529 17.4115 10.6103 17.4115 13.5294V17.0588Z" fill="#707493"/>
</svg>
