<svg width="38" height="37" viewBox="0 0 38 37" fill="none" xmlns="http://www.w3.org/2000/svg">
<g filter="url(#filter0_d_1775_227)">
<path d="M6.99984 17.3C6.99414 17.4629 7.10445 17.6027 7.26557 17.6394C15.0392 19.37 16.3206 20.669 17.8238 28.3286C17.8543 28.4874 17.9948 28.6001 18.1613 28.6001C18.3279 28.6001 18.4748 28.4874 18.5178 28.3286C20.5558 20.6691 21.9297 19.3702 29.8232 17.6394C29.9855 17.6041 30.107 17.4629 30.1127 17.3C30.1184 17.1372 30.0081 16.9974 29.847 16.9607C22.0733 15.2301 20.7919 13.9311 19.2902 6.27147C19.2596 6.11266 19.1192 6 18.9526 6C18.7861 6 18.6392 6.11266 18.5961 6.27147C16.5581 13.931 15.1843 15.2299 7.28934 16.9607C7.12565 16.9974 7.00555 17.1372 6.99984 17.3Z" fill="white"/>
</g>
<defs>
<filter id="filter0_d_1775_227" x="0" y="0" width="37.1133" height="36.6001" filterUnits="userSpaceOnUse" color-interpolation-filters="sRGB">
<feFlood flood-opacity="0" result="BackgroundImageFix"/>
<feColorMatrix in="SourceAlpha" type="matrix" values="0 0 0 0 0 0 0 0 0 0 0 0 0 0 0 0 0 0 127 0" result="hardAlpha"/>
<feOffset dy="1"/>
<feGaussianBlur stdDeviation="3.5"/>
<feComposite in2="hardAlpha" operator="out"/>
<feColorMatrix type="matrix" values="0 0 0 0 0.243899 0 0 0 0 0.148462 0 0 0 0 0.754119 0 0 0 0.5 0"/>
<feBlend mode="normal" in2="BackgroundImageFix" result="effect1_dropShadow_1775_227"/>
<feBlend mode="normal" in="SourceGraphic" in2="effect1_dropShadow_1775_227" result="shape"/>
</filter>
</defs>
</svg>
