<svg width="15" height="15" viewBox="0 0 15 15" fill="none" xmlns="http://www.w3.org/2000/svg">
<path d="M4.8833 0.0609131C6.03958 0.0609787 7.19663 0.474775 8.11182 1.30212L8.2915 1.47302L8.29248 1.47498L8.31396 1.49646L8.40674 1.59509H8.40283C9.0302 2.26621 9.43287 3.07166 9.60498 3.91541C9.77308 4.74034 9.72206 5.60029 9.45557 6.40369L14.7075 11.6566C14.8017 11.7508 14.8454 11.8767 14.8374 12.0004L14.8569 14.4086C14.859 14.6542 14.6612 14.8556 14.4155 14.8578L10.2065 14.8763C9.96108 14.877 9.76102 14.6788 9.76025 14.433V14.431L9.79346 12.8451L9.34619 12.3978L7.65186 12.5531C7.43828 12.5719 7.24531 12.4362 7.18604 12.2377L7.16943 12.1498V12.0687L7.32373 10.3754L6.40381 9.45544C5.60028 9.72208 4.73979 9.77301 3.91455 9.60486C3.02076 9.42251 2.16737 8.98417 1.47412 8.29041C0.53154 7.3496 0.0610352 6.11545 0.0610352 4.8822C0.061053 3.649 0.531879 2.4147 1.47314 1.474C2.41514 0.532002 3.64982 0.0609131 4.8833 0.0609131ZM4.8833 0.954468C3.87804 0.954468 2.87235 1.33768 2.10596 2.10388C1.33899 2.87084 0.955613 3.87687 0.955566 4.8822C0.955566 5.88749 1.33874 6.89314 2.10498 7.65955L2.11084 7.66541C2.67497 8.22837 3.36778 8.58402 4.09424 8.73181C4.8375 8.88294 5.61668 8.81794 6.32959 8.5365C6.49498 8.45796 6.69902 8.48811 6.83545 8.62439L8.10303 9.89197C8.19095 9.98276 8.24182 10.1098 8.22998 10.2465L8.104 11.6166L9.46045 11.4935C9.59165 11.4768 9.72905 11.5201 9.82959 11.6205L10.5581 12.348C10.6407 12.4306 10.6894 12.5455 10.687 12.6713L10.688 12.6722L10.6597 13.9838L13.9634 13.9691L13.9487 12.1595L8.62451 6.8363C8.50338 6.71376 8.45843 6.52529 8.52686 6.35486L8.62549 6.08142C8.83093 5.43789 8.86671 4.75221 8.73291 4.09412V4.09314C8.58599 3.37293 8.23592 2.68507 7.68115 2.12341L7.6626 2.10583L7.66064 2.10486C6.89365 1.33789 5.88863 0.954487 4.8833 0.954468ZM3.84619 2.22205C4.2603 2.22208 4.67602 2.38062 4.99365 2.69763L4.99463 2.69861H4.99365C5.31076 3.01571 5.47021 3.43132 5.47021 3.84607C5.47012 4.26126 5.31069 4.67747 4.99365 4.99451C4.67656 5.31143 4.2604 5.47009 3.84521 5.47009C3.43123 5.47003 3.01636 5.31206 2.69873 4.99451L2.69775 4.99255C2.38014 4.67428 2.22119 4.259 2.22119 3.84607C2.22125 3.43082 2.38068 3.01471 2.69775 2.69763C3.01486 2.38062 3.43095 2.22205 3.84619 2.22205ZM3.84619 3.11462C3.65886 3.11462 3.47075 3.18635 3.32861 3.32849C3.18598 3.47119 3.11475 3.65876 3.11475 3.84607C3.11484 4.03458 3.18638 4.22135 3.32764 4.36267L3.32861 4.36365C3.47004 4.50508 3.6575 4.57654 3.84619 4.57654C4.03342 4.57651 4.2207 4.50469 4.36279 4.36267C4.50483 4.22063 4.57656 4.03327 4.57666 3.84607C4.57666 3.6581 4.50536 3.46966 4.36377 3.32751C4.22102 3.18609 4.03387 3.11466 3.84619 3.11462Z" fill="black" stroke="white" stroke-width="0.122437"/>
</svg>
