<svg width="37" height="33" viewBox="0 0 37 33" fill="none" xmlns="http://www.w3.org/2000/svg">
<path d="M23.1231 14.7635C22.1652 14.7635 21.3863 13.9846 21.3863 13.0267C21.3863 12.0688 22.1652 11.2898 23.1231 11.2898C24.081 11.2898 24.8599 12.0688 24.8599 13.0267H26.5968C26.5968 11.4129 25.4854 10.0647 23.9915 9.67633V8.68457H22.2547V9.67633C20.7607 10.0648 19.6494 11.4129 19.6494 13.0267C19.6494 14.942 21.2077 16.5004 23.1231 16.5004C24.081 16.5004 24.8599 17.2793 24.8599 18.2372C24.8599 19.1951 24.081 19.974 23.1231 19.974C22.1652 19.974 21.3863 19.1951 21.3863 18.2372H19.6494C19.6494 19.851 20.7607 21.1991 22.2547 21.5875V22.5793H23.9915V21.5875C25.4854 21.1991 26.5968 19.851 26.5968 18.2372C26.5968 16.3218 25.0385 14.7635 23.1231 14.7635Z" fill="#15C8A8"/>
<path d="M14.2211 8.68457C13.8276 8.68457 13.4832 8.94917 13.3819 9.3291L9.9082 22.3554L11.5865 22.8032L12.3409 19.974H16.1012L16.8556 22.8032L18.5339 22.3554L15.0602 9.3291C14.9589 8.94917 14.6146 8.68457 14.2211 8.68457ZM12.8041 18.2372L14.2211 12.9232L15.638 18.2372H12.8041Z" fill="#15C8A8"/>
<path d="M18.2368 31.263C10.9458 31.263 4.82328 25.9811 3.6796 18.8668C4.58015 18.4562 5.21053 17.5525 5.21053 16.4998C5.21053 15.0632 4.04189 13.8945 2.60526 13.8945C1.16863 13.8945 0 15.0632 0 16.4998C0 17.7071 0.829412 18.7157 1.94558 19.01C3.16843 27.0298 10.0427 32.9998 18.2368 32.9998C25.2605 32.9998 31.5231 28.5457 33.8205 21.9168L32.1795 21.3478C30.1242 27.2783 24.521 31.263 18.2368 31.263ZM2.60526 15.6314C3.084 15.6314 3.47368 16.0211 3.47368 16.4998C3.47368 16.9785 3.084 17.3682 2.60526 17.3682C2.12653 17.3682 1.73684 16.9785 1.73684 16.4998C1.73684 16.0211 2.12653 15.6314 2.60526 15.6314Z" fill="#15C8A8"/>
<path d="M34.5282 13.9898C33.3054 5.96997 26.4311 0 18.237 0C11.2133 0 4.95073 4.45405 2.65332 11.083L4.29433 11.652C6.34962 5.72149 11.9528 1.73684 18.237 1.73684C25.528 1.73684 31.6505 7.01866 32.7942 14.133C31.8937 14.5437 31.2633 15.4474 31.2633 16.5C31.2633 17.9366 32.4319 19.1053 33.8686 19.1053C35.3052 19.1053 36.4738 17.9366 36.4738 16.5C36.4738 15.2927 35.6444 14.284 34.5282 13.9898ZM33.8686 17.3684C33.3898 17.3684 33.0001 16.9787 33.0001 16.5C33.0001 16.0213 33.3898 15.6316 33.8686 15.6316C34.3473 15.6316 34.737 16.0213 34.737 16.5C34.737 16.9787 34.3473 17.3684 33.8686 17.3684Z" fill="#15C8A8"/>
</svg>
