<svg width="24" height="24" viewBox="0 0 24 24" fill="none" xmlns="http://www.w3.org/2000/svg">
<path d="M6.32129 2.7041C5.43252 2.7042 4.70427 3.43254 4.7041 4.32129V20.6787C4.70417 21.5675 5.43246 22.2958 6.32129 22.2959H17.8027C18.6916 22.2958 19.4199 21.5675 19.4199 20.6787L19.4209 6.32227H16.2305C15.9948 6.3222 15.8028 6.13027 15.8027 5.89453V2.7041H6.32129ZM7.39453 17.8457C8.22679 17.8457 8.90215 18.5204 8.90234 19.3525C8.90234 20.1849 8.22688 20.8604 7.39453 20.8604C6.56222 20.8603 5.88672 20.1849 5.88672 19.3525C5.88691 18.5204 6.56234 17.8458 7.39453 17.8457ZM7.85645 18.8906C7.44587 18.4806 6.74121 18.7733 6.74121 19.3535C6.7416 19.9334 7.446 20.2254 7.85645 19.8154C8.11172 19.5602 8.11172 19.1459 7.85645 18.8906ZM17.8105 18.9258C18.046 18.9258 18.2383 19.1173 18.2383 19.3525C18.2381 19.5881 18.0462 19.7793 17.8105 19.7793H10.0029C9.76666 19.7793 9.57639 19.5875 9.57617 19.3525C9.57617 19.1165 9.76837 18.9258 10.0029 18.9258H17.8105ZM9.2373 4.1416C10.1157 4.1418 10.833 4.85883 10.833 5.7373V14.5107C10.833 15.3892 10.1157 16.1062 9.2373 16.1064H7.48242C6.60395 16.1063 5.88672 15.3892 5.88672 14.5107V5.7373C5.88672 4.85779 6.60496 4.14176 7.48242 4.1416H9.2373ZM7.48242 4.99414C7.07548 4.9943 6.74121 5.32937 6.74121 5.73633V14.5098C6.74121 14.9167 7.0755 15.2518 7.48242 15.252H9.2373C9.64421 15.2517 9.97852 14.9167 9.97852 14.5098V5.73633C9.97852 5.32938 9.64419 4.99434 9.2373 4.99414H7.48242ZM16.2197 9.7959C16.4561 9.7959 16.6465 9.98849 16.6465 10.2236C16.6464 10.4597 16.4542 10.6504 16.2197 10.6504H11.7305C11.4951 10.6504 11.3028 10.4588 11.3027 10.2236C11.3027 9.98786 11.4947 9.7959 11.7305 9.7959H16.2197ZM16.6572 5.4668H18.8174L16.6572 3.30664V5.4668ZM20.2734 20.6787C20.2734 22.039 19.1631 23.1503 17.8027 23.1504H6.32129C4.96094 23.1503 3.84969 22.0391 3.84961 20.6787V4.32129C3.84977 2.96101 4.96094 1.85066 6.32129 1.85059L16.2305 1.84961C16.3504 1.84962 16.4575 1.89985 16.5342 1.97656L20.1504 5.59277L20.1592 5.60254L20.2041 5.66211C20.2453 5.72547 20.2733 5.80012 20.2744 5.89258V5.89453L20.2734 20.6787Z" fill="white" stroke="white" stroke-width="0.3"/>
</svg>
