<svg width="20" height="20" viewBox="0 0 20 20" fill="none" xmlns="http://www.w3.org/2000/svg">
<path d="M10 6.6665V9.99984L12.0833 12.0832" stroke="#707493" stroke-width="1.25" stroke-linecap="round" stroke-linejoin="round"/>
<path d="M3.61451 5.72594L2.98951 5.72844C2.99016 5.8932 3.05584 6.05102 3.17226 6.1676C3.28868 6.28417 3.44642 6.35007 3.61117 6.35094L3.61451 5.72594ZM5.73284 6.36094C5.81492 6.36133 5.89626 6.34554 5.97224 6.31449C6.04821 6.28343 6.11733 6.23771 6.17564 6.17995C6.23394 6.12218 6.2803 6.0535 6.31207 5.97782C6.34383 5.90213 6.36037 5.82094 6.36076 5.73886C6.36114 5.65678 6.34535 5.57544 6.3143 5.49946C6.28324 5.42349 6.23753 5.35437 6.17976 5.29607C6.122 5.23776 6.05331 5.1914 5.97763 5.15964C5.90195 5.12787 5.82075 5.11133 5.73867 5.11094L5.73284 6.36094ZM4.22867 3.60094C4.22824 3.51887 4.21164 3.43768 4.17982 3.36202C4.14801 3.28636 4.1016 3.21771 4.04326 3.15998C3.98491 3.10225 3.91577 3.05658 3.83977 3.02558C3.76377 2.99457 3.68242 2.97884 3.60034 2.97928C3.51826 2.97972 3.43708 2.99631 3.36142 3.02813C3.28576 3.05994 3.2171 3.10635 3.15937 3.16469C3.10165 3.22304 3.05598 3.29218 3.02497 3.36818C2.99397 3.44418 2.97824 3.52553 2.97867 3.60761L4.22867 3.60094ZM3.18867 8.98761C3.20065 8.90593 3.19632 8.82268 3.17594 8.74268C3.15557 8.66268 3.11954 8.5875 3.06995 8.5215C3.02035 8.4555 2.95818 8.39998 2.887 8.35814C2.81583 8.31631 2.73708 8.28899 2.65529 8.27776C2.5735 8.26653 2.49029 8.27162 2.41048 8.29273C2.33067 8.31383 2.25583 8.35055 2.19028 8.40074C2.12474 8.45094 2.06979 8.51362 2.0286 8.58517C1.98742 8.65672 1.96082 8.73572 1.95034 8.81761L3.18867 8.98761ZM15.7178 4.28178C12.5345 1.09844 7.39034 1.06511 4.22784 4.22844L5.11117 5.11178C7.77784 2.44594 12.1303 2.46178 14.8345 5.16511L15.7178 4.28178ZM4.28117 15.7184C7.46451 18.9018 12.6087 18.9351 15.7712 15.7718L14.8878 14.8884C12.2212 17.5543 7.86867 17.5384 5.16451 14.8351L4.28117 15.7184ZM15.7712 15.7718C18.9337 12.6093 18.9012 7.46511 15.7178 4.28178L14.8345 5.16511C17.5378 7.86928 17.5537 12.2218 14.8878 14.8884L15.7712 15.7718ZM4.22784 4.22844L3.17201 5.28344L4.05617 6.16678L5.11117 5.11178L4.22784 4.22844ZM3.61117 6.35094L5.73284 6.36094L5.73867 5.11094L3.61784 5.10094L3.61117 6.35094ZM4.23951 5.72261L4.22867 3.60094L2.97867 3.60761L2.98951 5.72844L4.23951 5.72261ZM1.94951 8.81678C1.77816 10.0689 1.89946 11.3438 2.30389 12.5411C2.70831 13.7385 3.38484 14.8258 4.28034 15.7176L5.16367 14.8343C4.40459 14.0788 3.83108 13.1575 3.48824 12.1428C3.14541 11.1282 3.04258 10.0479 3.18784 8.98678L1.94951 8.81678Z" fill="#707493"/>
</svg>
