<svg width="33" height="32" viewBox="0 0 33 32" fill="none" xmlns="http://www.w3.org/2000/svg">
<rect width="32.4437" height="32" rx="16" fill="#15C8A8"/>
<path d="M12.7876 6.12297C14.432 6.12306 16.0773 6.75085 17.3315 8.00578L17.3335 8.00774L17.3618 8.03703L17.3872 8.06438C18.2793 8.97859 18.8453 10.095 19.0835 11.2626C19.3075 12.3624 19.2395 13.509 18.8843 14.58L25.8872 21.5839C26.0129 21.7096 26.069 21.8778 26.0581 22.0429H26.0601L26.0854 25.2529L26.0747 25.373C26.0218 25.6437 25.7841 25.8488 25.4976 25.8515H25.4966L19.8853 25.8769C19.5579 25.8778 19.2905 25.6129 19.2896 25.2851V25.2831L19.3345 23.1669L18.7388 22.5722L16.48 22.7792H16.479C16.1541 22.8078 15.8649 22.5683 15.8354 22.2421V22.1327L16.0415 19.8749L14.8149 18.6484C13.7436 19.0039 12.5969 19.0718 11.4966 18.8476C10.3048 18.6045 9.16612 18.0207 8.2417 17.0956C6.98509 15.8413 6.35797 14.1959 6.35791 12.5517C6.35791 10.9073 6.98557 9.26108 8.24072 8.00676C9.49672 6.75076 11.143 6.12297 12.7876 6.12297ZM12.7876 7.31438C11.4471 7.31438 10.1064 7.82577 9.08447 8.84758C8.06179 9.87026 7.55029 11.2112 7.55029 12.5517C7.55031 13.8084 7.99979 15.0652 8.89795 16.0595L9.0835 16.2548L9.09717 16.2685V16.2695C9.848 17.0161 10.7693 17.488 11.7349 17.6845C12.726 17.886 13.7657 17.7991 14.7163 17.4238C14.9369 17.3191 15.2093 17.3591 15.3911 17.5409L17.0806 19.2304C17.1687 19.3213 17.2287 19.4398 17.2466 19.5702L17.2505 19.704L17.0835 21.5302L18.8901 21.3671L19.0229 21.3652C19.1546 21.3781 19.2828 21.4356 19.3833 21.5361L20.354 22.5058C20.4644 22.6163 20.5314 22.7701 20.5278 22.9384L20.4897 24.6864L24.894 24.6679L24.8755 22.2558L17.7759 15.1562C17.6146 14.9928 17.5548 14.7417 17.646 14.5146C18.0331 13.5546 18.1242 12.5037 17.9204 11.5009V11.4999L17.8345 11.1415C17.6035 10.3118 17.1642 9.52758 16.5161 8.87199V8.87102L16.4927 8.84953L16.4907 8.84856C15.4681 7.82589 14.1281 7.3144 12.7876 7.31438ZM11.4048 9.00383C11.9569 9.00388 12.5106 9.21602 12.9341 9.6386L12.9351 9.63957C13.3577 10.0623 13.5697 10.616 13.5698 11.1689C13.5698 11.7226 13.3579 12.2783 12.9351 12.7011C12.5123 13.1238 11.9575 13.3359 11.4038 13.3359C10.8517 13.3359 10.2981 13.1247 9.87451 12.7011L9.87354 12.6991C9.44999 12.2748 9.23877 11.7205 9.23877 11.1698C9.23884 10.6162 9.45076 10.0614 9.87354 9.6386C10.2963 9.21591 10.8511 9.00383 11.4048 9.00383ZM11.4048 10.1943C11.1552 10.1943 10.9048 10.2901 10.7153 10.4794C10.5252 10.6696 10.4303 10.9192 10.4302 11.1689C10.4302 11.4205 10.5248 11.6707 10.7134 11.8593L10.7153 11.8603C10.9039 12.0488 11.1532 12.1445 11.4048 12.1445C11.6544 12.1444 11.9048 12.0487 12.0942 11.8593C12.2838 11.6698 12.3794 11.4186 12.3794 11.1689C12.3793 10.9186 12.2836 10.6688 12.0952 10.4794C11.9048 10.2905 11.6553 10.1943 11.4048 10.1943Z" fill="white" stroke="white" stroke-width="0.16325"/>
</svg>
