<svg width="16" height="16" viewBox="0 0 16 16" fill="none" xmlns="http://www.w3.org/2000/svg">
<path d="M11.0377 16H2.64348C1.18261 16 0 14.8174 0 13.3565V4.96232C0 3.50145 1.18261 2.31884 2.64348 2.31884H9.57681V3.24638H2.64348C1.69275 3.24638 0.927536 4.01159 0.927536 4.96232V13.3333C0.927536 14.2841 1.69275 15.0493 2.64348 15.0493H11.0145C11.9652 15.0493 12.7304 14.2841 12.7304 13.3333V6.42319H13.658V13.3565C13.6812 14.8174 12.4986 16 11.0377 16ZM6.58551 10.0638L15.8609 0.788406C16.0464 0.602899 16.0464 0.324638 15.8609 0.13913C15.6754 -0.0463768 15.3971 -0.0463768 15.2116 0.13913L5.93623 9.41449C5.75072 9.6 5.75072 9.87826 5.93623 10.0638C6.02899 10.1565 6.14493 10.2029 6.26087 10.2029C6.37681 10.2029 6.49275 10.1565 6.58551 10.0638ZM16 5.10145V0.463768C16 0.208696 15.7913 0 15.5362 0H10.8986C10.6435 0 10.4348 0.208696 10.4348 0.463768C10.4348 0.718841 10.6435 0.927536 10.8986 0.927536H15.0725V5.10145C15.0725 5.35652 15.2812 5.56522 15.5362 5.56522C15.7913 5.56522 16 5.35652 16 5.10145Z" fill="#3C3B42"/>
</svg>
