<svg width="61" height="61" viewBox="0 0 61 61" fill="none" xmlns="http://www.w3.org/2000/svg">
<circle cx="30.5" cy="30.5" r="30.5" fill="#009C80" fill-opacity="0.08"/>
<path d="M33.2828 45.2229H28.2509C26.5275 45.2199 25.1313 43.8237 25.1298 42.1003V37.6588C25.1075 36.0812 24.4161 34.5868 23.2265 33.5519C20.4683 31.094 19.0808 27.4481 19.5077 23.7797C19.933 20.11 22.1203 16.8788 25.3679 15.1198C28.6156 13.3608 32.517 13.2938 35.8226 14.9414C35.9728 14.9979 36.0918 15.1168 36.1498 15.2655C36.2077 15.4157 36.2018 15.5822 36.1304 15.7264C36.0591 15.8707 35.9312 15.9777 35.7765 16.0223C35.6234 16.067 35.4568 16.0447 35.3201 15.9614C32.3447 14.47 28.828 14.5265 25.9019 16.1101C22.9756 17.6952 21.0055 20.6079 20.6264 23.915C20.2487 27.222 21.5066 30.505 24.0002 32.7101C25.4277 33.9621 26.2574 35.7598 26.2842 37.6586V42.1001C26.2856 43.193 27.1704 44.0777 28.2633 44.0807H33.2834C34.3763 44.0777 35.2595 43.193 35.2595 42.1001V37.7999C35.2521 35.8594 36.0773 34.0097 37.5241 32.7173C38.4579 31.898 39.2326 30.9137 39.808 29.8133C39.9552 29.5338 40.3002 29.4253 40.5797 29.571C40.8593 29.7167 40.9663 30.0617 40.8206 30.3412C40.1827 31.5649 39.3248 32.6608 38.2899 33.5738C37.0884 34.6489 36.4059 36.1864 36.4133 37.7998V42.1016V42.1001C36.4133 42.9299 36.0832 43.7254 35.4959 44.3097C34.9085 44.8956 34.113 45.2242 33.2833 45.2227L33.2828 45.2229Z" fill="#15C8A8"/>
<path d="M36.0822 36.5917H25.5114C25.1962 36.5917 24.9404 36.3359 24.9404 36.0207C24.9404 35.7055 25.1962 35.4497 25.5114 35.4497H36.0822C36.3975 35.4497 36.6532 35.7055 36.6532 36.0207C36.6532 36.3359 36.3975 36.5917 36.0822 36.5917Z" fill="#15C8A8"/>
<path d="M40.3031 28.2176C39.8868 28.2161 39.5061 27.9886 39.3054 27.6243L37.4779 24.2891H37.4794C37.4006 24.1404 37.2802 24.0185 37.133 23.9397L33.7978 22.1271C33.4365 21.9249 33.2119 21.5442 33.2119 21.1294C33.2119 20.716 33.4364 20.3339 33.7978 20.1331L37.1359 18.3057C37.2832 18.2254 37.4021 18.1049 37.4824 17.9592L39.3099 14.621C39.5121 14.2597 39.8927 14.0352 40.3076 14.0352C40.7209 14.0352 41.1031 14.2597 41.3038 14.621L43.1283 17.9399C43.2086 18.0856 43.3291 18.2061 43.4748 18.2864L46.813 20.1138C47.1743 20.3145 47.3988 20.6967 47.3988 21.1101C47.3988 21.5249 47.1743 21.9071 46.813 22.1078L43.4748 23.9308C43.3291 24.0126 43.2086 24.1315 43.1283 24.2773L41.3009 27.6199C41.1016 27.9857 40.7195 28.2146 40.3031 28.2176Z" fill="#15C8A8"/>
<path d="M33.5675 47.2498H28.0255C27.2776 47.2483 26.6724 46.6417 26.6709 45.8952V44.441C26.6709 44.1258 26.9267 43.87 27.2419 43.87C27.5571 43.87 27.8129 44.1258 27.8129 44.441V45.8952C27.8144 46.0112 27.908 46.1064 28.0255 46.1079H33.5675C33.6864 46.1079 33.7816 46.0127 33.7816 45.8952V44.4142C33.7816 44.099 34.0373 43.8433 34.3526 43.8433C34.6678 43.8433 34.9236 44.099 34.9236 44.4142V45.8952C34.9206 46.6417 34.3154 47.2483 33.5675 47.2498Z" fill="#15C8A8"/>
<path d="M28.1411 40.9648H25.7009C25.3856 40.9648 25.1299 40.7105 25.1299 40.3938C25.1299 40.0785 25.3856 39.8228 25.7009 39.8228H28.1411C28.4563 39.8228 28.7121 40.0785 28.7121 40.3938C28.7121 40.7105 28.4563 40.9648 28.1411 40.9648Z" fill="#15C8A8"/>
<path d="M35.8294 40.9647H30.3708C30.0556 40.9647 29.7998 40.7105 29.7998 40.3937C29.7998 40.0785 30.0556 39.8228 30.3708 39.8228H35.8294C36.1446 39.8228 36.4004 40.0785 36.4004 40.3937C36.4004 40.7105 36.1446 40.9647 35.8294 40.9647Z" fill="#15C8A8"/>
</svg>
