<svg width="61" height="61" viewBox="0 0 61 61" fill="none" xmlns="http://www.w3.org/2000/svg">
<circle cx="30.5" cy="30.5" r="30.5" fill="#009C80" fill-opacity="0.08"/>
<path d="M33.2823 45.2229H28.2504C26.5271 45.2199 25.1308 43.8237 25.1293 42.1003V37.6588C25.107 36.0812 24.4156 34.5868 23.226 33.5519C20.4678 31.094 19.0803 27.4481 19.5072 23.7797C19.9325 20.11 22.1198 16.8788 25.3674 15.1198C28.6151 13.3608 32.5165 13.2938 35.8221 14.9414C35.9723 14.9979 36.0913 15.1168 36.1493 15.2655C36.2073 15.4157 36.2013 15.5822 36.1299 15.7264C36.0586 15.8707 35.9307 15.9777 35.776 16.0223C35.6229 16.067 35.4564 16.0447 35.3196 15.9614C32.3442 14.47 28.8275 14.5265 25.9014 16.1101C22.9751 17.6952 21.005 20.6079 20.6259 23.915C20.2482 27.222 21.5061 30.505 23.9997 32.7101C25.4272 33.9621 26.2569 35.7598 26.2837 37.6586V42.1001C26.2852 43.193 27.1699 44.0777 28.2628 44.0807H33.2829C34.3758 44.0777 35.259 43.193 35.259 42.1001V37.7999C35.2516 35.8594 36.0768 34.0097 37.5236 32.7173C38.4574 31.898 39.2321 30.9137 39.8075 29.8133C39.9547 29.5338 40.2997 29.4253 40.5792 29.571C40.8588 29.7167 40.9658 30.0617 40.8201 30.3412C40.1822 31.5649 39.3243 32.6608 38.2894 33.5738C37.0879 34.6489 36.4054 36.1864 36.4129 37.7998V42.1016V42.1001C36.4129 42.9299 36.0828 43.7254 35.4954 44.3097C34.908 44.8956 34.1125 45.2242 33.2828 45.2227L33.2823 45.2229Z" fill="#15C8A8"/>
<path d="M36.0813 36.5917H25.5104C25.1952 36.5917 24.9395 36.3359 24.9395 36.0207C24.9395 35.7055 25.1952 35.4497 25.5104 35.4497H36.0813C36.3965 35.4497 36.6522 35.7055 36.6522 36.0207C36.6522 36.3359 36.3965 36.5917 36.0813 36.5917Z" fill="#15C8A8"/>
<path d="M40.3026 28.2176C39.8863 28.2161 39.5056 27.9886 39.3049 27.6243L37.4775 24.2891H37.4789C37.4001 24.1404 37.2797 24.0185 37.1325 23.9397L33.7973 22.1271C33.436 21.9249 33.2114 21.5442 33.2114 21.1294C33.2114 20.716 33.436 20.3339 33.7973 20.1331L37.1355 18.3057C37.2827 18.2254 37.4016 18.1049 37.4819 17.9592L39.3094 14.621C39.5116 14.2597 39.8922 14.0352 40.3071 14.0352C40.7205 14.0352 41.1026 14.2597 41.3034 14.621L43.1278 17.9399C43.2081 18.0856 43.3286 18.2061 43.4743 18.2864L46.8125 20.1138C47.1738 20.3145 47.3983 20.6967 47.3983 21.1101C47.3983 21.5249 47.1738 21.9071 46.8125 22.1078L43.4743 23.9308C43.3286 24.0126 43.2081 24.1315 43.1278 24.2773L41.3004 27.6199C41.1011 27.9857 40.719 28.2146 40.3026 28.2176Z" fill="#15C8A8"/>
<path d="M33.5675 47.2498H28.0255C27.2776 47.2483 26.6724 46.6417 26.6709 45.8952V44.441C26.6709 44.1258 26.9267 43.87 27.2419 43.87C27.5571 43.87 27.8129 44.1258 27.8129 44.441V45.8952C27.8144 46.0112 27.908 46.1064 28.0255 46.1079H33.5675C33.6864 46.1079 33.7816 46.0127 33.7816 45.8952V44.4142C33.7816 44.099 34.0373 43.8433 34.3526 43.8433C34.6678 43.8433 34.9236 44.099 34.9236 44.4142V45.8952C34.9206 46.6417 34.3154 47.2483 33.5675 47.2498Z" fill="#15C8A8"/>
<path d="M28.1411 40.9648H25.7009C25.3856 40.9648 25.1299 40.7105 25.1299 40.3938C25.1299 40.0785 25.3856 39.8228 25.7009 39.8228H28.1411C28.4563 39.8228 28.7121 40.0785 28.7121 40.3938C28.7121 40.7105 28.4563 40.9648 28.1411 40.9648Z" fill="#15C8A8"/>
<path d="M35.8294 40.9647H30.3708C30.0556 40.9647 29.7998 40.7105 29.7998 40.3937C29.7998 40.0785 30.0556 39.8228 30.3708 39.8228H35.8294C36.1446 39.8228 36.4004 40.0785 36.4004 40.3937C36.4004 40.7105 36.1446 40.9647 35.8294 40.9647Z" fill="#15C8A8"/>
</svg>
