<svg width="24" height="24" viewBox="0 0 24 24" fill="none" xmlns="http://www.w3.org/2000/svg">
<path d="M9.5 6C9.547 4.907 9.685 4.21 10.098 3.674C10.2577 3.46591 10.4439 3.27966 10.652 3.12C11.462 2.5 12.637 2.5 14.987 2.5H15.488C18.322 2.5 19.739 2.5 20.62 3.379C21.5 4.257 21.5 5.672 21.5 8.5V15.5C21.5 18.328 21.5 19.743 20.62 20.621C19.74 21.499 18.322 21.5 15.488 21.5H14.988C12.637 21.5 11.462 21.5 10.652 20.88C10.4427 20.7193 10.258 20.5347 10.098 20.326C9.685 19.79 9.547 19.093 9.5 18M3.5 12H15.5M6 15.5C6 15.5 2.5 12.922 2.5 12C2.5 11.078 6 8.5 6 8.5" stroke="#C14B40" stroke-width="1.5" stroke-linecap="round" stroke-linejoin="round"/>
</svg>
