<svg width="25" height="25" viewBox="0 0 25 25" fill="none" xmlns="http://www.w3.org/2000/svg">
<g clip-path="url(#clip0_1920_11313)">
<path d="M16.3014 16.3001L12.2267 12.2253M12.2267 12.2253L8.1519 16.3001M12.2267 12.2253V21.3935M20.7735 18.7347C21.7671 18.1931 22.552 17.3359 23.0043 16.2987C23.4566 15.2614 23.5507 14.103 23.2715 13.0063C22.9924 11.9096 22.356 10.9372 21.4628 10.2424C20.5696 9.54754 19.4704 9.16996 18.3388 9.16922H17.0553C16.7469 7.97658 16.1722 6.86935 15.3744 5.93079C14.5765 4.99223 13.5763 4.24675 12.4488 3.7504C11.3214 3.25405 10.0961 3.01974 8.8651 3.0651C7.63408 3.11045 6.42936 3.43429 5.34151 4.01226C4.25366 4.59023 3.31098 5.40729 2.58436 6.40202C1.85774 7.39676 1.36608 8.54327 1.14633 9.75537C0.926592 10.9675 0.98449 12.2136 1.31568 13.4001C1.64686 14.5866 2.24271 15.6826 3.05844 16.6057" stroke="#6C4CDC" stroke-width="1.91005" stroke-linecap="round" stroke-linejoin="round"/>
</g>
<defs>
<clipPath id="clip0_1920_11313">
<rect width="24.4486" height="24.4486" fill="white"/>
</clipPath>
</defs>
</svg>
