<svg width="77" height="58" viewBox="0 0 77 58" fill="none" xmlns="http://www.w3.org/2000/svg">
<path d="M63.6498 48.9169C62.2817 52.2196 60.2764 55.2208 57.7486 57.7486L48.124 48.1239C49.3879 46.86 50.3905 45.3595 51.0745 43.708C51.7586 42.0567 52.1107 40.2867 52.1107 38.4993C52.1107 36.7118 51.7586 34.9419 51.0745 33.2905C50.3905 31.639 49.3879 30.1386 48.124 28.8746L57.7486 19.25C60.2764 21.7778 62.2817 24.7789 63.6498 28.0817C65.0178 31.3845 65.7219 34.9243 65.722 38.4993C65.7219 42.0743 65.0178 45.614 63.6498 48.9169Z" fill="#5B36E1"/>
<path d="M57.7479 19.2493C55.2201 16.7214 52.219 14.7162 48.9162 13.3481C45.6134 11.9801 42.0736 11.276 38.4986 11.2759C34.9236 11.276 31.3839 11.9801 28.081 13.3481C24.7783 14.7162 21.7771 16.7215 19.2493 19.2493C16.7215 21.7771 14.7163 24.7782 13.3481 28.081C11.9801 31.3838 11.276 34.9236 11.2759 38.4986C11.276 42.0736 11.9801 45.6133 13.3481 48.9162C14.7163 52.2189 16.7215 55.2201 19.2493 57.7479L28.874 48.1232C27.61 46.8593 26.6074 45.3588 25.9234 43.7073C25.2394 42.056 24.8873 40.286 24.8873 38.4986C24.8873 36.7111 25.2394 34.9412 25.9234 33.2898C26.6074 31.6383 27.61 30.1379 28.874 28.8739C30.1379 27.61 31.6384 26.6073 33.2899 25.9234C34.9412 25.2393 36.7112 24.8872 38.4986 24.8872C40.2861 24.8872 42.056 25.2393 43.7074 25.9234C45.3589 26.6073 46.8593 27.61 48.1233 28.8739L57.7479 19.2493Z" fill="url(#paint0_linear_492_2903)"/>
<circle cx="38.6695" cy="37.87" r="10.1755" fill="url(#paint1_linear_492_2903)"/>
<defs>
<linearGradient id="paint0_linear_492_2903" x1="38.4986" y1="38.4986" x2="19.2493" y2="19.2493" gradientUnits="userSpaceOnUse">
<stop offset="0.08" stop-color="#5B36E1"/>
<stop offset="1" stop-color="#9479F4"/>
</linearGradient>
<linearGradient id="paint1_linear_492_2903" x1="29.6605" y1="27.6946" x2="47.6785" y2="48.0455" gradientUnits="userSpaceOnUse">
<stop stop-color="#9C86ED"/>
<stop offset="1" stop-color="#5B36E1"/>
</linearGradient>
</defs>
</svg>
